{"glyphs":{"0":{"ha":694,"x_min":60,"x_max":618,"o":"m 472 806 q 450 864 472 806 q 342 922 429 922 q 214 806 266 922 q 163 494 163 689 q 214 174 163 288 q 342 60 266 60 q 469 174 423 60 q 515 494 515 288 q 472 806 515 689 m 540 144 q 500 80 540 144 q 342 16 461 16 q 141 141 222 16 q 60 494 60 266 q 138 836 60 705 q 342 966 217 966 q 540 841 461 966 q 618 494 618 716 q 540 144 618 271 z "},"1":{"ha":694,"x_min":152,"x_max":548,"o":"m 369 971 l 391 971 l 391 146 q 418 81 391 103 q 494 60 445 60 l 548 60 l 548 27 l 152 27 l 152 60 l 201 60 q 279 81 255 60 q 304 146 304 103 l 304 803 q 290 838 304 825 q 250 852 277 852 l 152 852 l 152 884 l 201 884 q 307 906 266 884 q 369 971 347 928 z "},"2":{"ha":694,"x_min":65,"x_max":602,"o":"m 456 575 q 477 616 456 575 q 499 727 499 656 q 456 876 499 825 q 326 928 412 928 q 214 892 260 928 q 168 803 168 857 q 187 749 168 770 q 206 705 206 727 q 193 665 206 678 q 152 651 179 651 q 100 670 119 651 q 81 732 81 689 q 163 906 81 846 q 336 966 244 966 q 529 901 467 966 q 591 738 591 836 q 562 608 591 673 q 467 483 532 543 q 225 236 309 331 q 125 109 141 141 l 445 109 q 526 146 494 109 q 570 260 559 184 l 602 260 l 570 27 l 65 27 l 65 98 q 155 222 92 146 q 320 401 217 298 q 456 575 412 494 z "},"3":{"ha":694,"x_min":76,"x_max":602,"o":"m 559 418 q 581 382 559 418 q 602 277 602 347 q 526 95 602 174 q 315 16 450 16 q 146 71 217 16 q 76 195 76 125 q 98 252 76 228 q 141 277 119 277 q 187 252 174 277 q 201 212 201 228 q 190 165 201 184 q 179 130 179 146 q 220 76 179 98 q 309 54 260 54 q 456 111 407 54 q 505 288 505 168 q 453 445 505 385 q 260 505 401 505 l 260 543 q 420 594 369 543 q 472 738 472 646 q 431 871 472 814 q 304 928 391 928 q 222 909 266 928 q 179 846 179 890 q 190 792 179 803 q 201 765 201 781 q 190 722 201 738 q 152 705 179 705 q 111 722 130 705 q 92 781 92 738 q 163 914 92 863 q 326 966 233 966 q 499 898 434 966 q 564 754 564 830 q 524 616 564 673 q 396 532 483 559 q 559 418 515 488 z "},"4":{"ha":694,"x_min":43,"x_max":640,"o":"m 494 309 l 494 130 q 515 76 494 92 q 575 60 537 60 l 624 60 l 624 27 l 266 27 l 266 60 l 326 60 q 388 76 369 60 q 407 130 407 92 l 407 309 l 43 309 l 43 336 l 439 966 l 494 966 l 494 342 l 640 342 l 640 309 l 494 309 m 407 830 l 401 830 l 92 342 l 407 342 l 407 830 z "},"5":{"ha":694,"x_min":76,"x_max":602,"o":"m 263 608 q 289 616 263 608 q 369 624 315 624 q 537 545 472 624 q 602 336 602 467 q 534 103 602 190 q 326 16 467 16 q 152 73 228 16 q 76 212 76 130 q 95 269 76 244 q 146 293 114 293 q 190 271 179 293 q 201 233 201 250 q 184 182 201 201 q 168 141 168 163 q 220 76 168 98 q 331 54 271 54 q 464 125 418 54 q 510 326 510 195 q 469 502 510 434 q 347 570 429 570 q 244 548 288 570 q 163 456 201 526 l 114 461 l 141 955 l 586 955 l 570 873 l 179 873 l 157 515 q 263 608 212 591 z "},"6":{"ha":694,"x_min":60,"x_max":618,"o":"m 258 529 q 232 511 258 529 q 163 396 206 494 q 220 144 163 233 q 358 54 277 54 q 483 114 439 54 q 526 336 526 174 q 480 505 526 445 q 369 564 434 564 q 258 529 309 564 m 252 583 q 281 601 252 583 q 374 618 309 618 q 562 532 505 618 q 618 336 618 445 q 540 95 618 174 q 358 16 461 16 q 136 127 212 16 q 60 450 60 239 q 152 833 60 700 q 401 966 244 966 q 524 922 477 966 q 570 846 570 879 q 556 798 570 814 q 510 781 543 781 q 469 795 483 781 q 456 836 456 808 q 458 857 456 846 q 461 879 461 868 q 445 914 461 901 q 385 928 429 928 q 228 844 293 928 q 163 477 163 760 q 252 583 195 548 z "},"7":{"ha":694,"x_min":81,"x_max":608,"o":"m 608 955 l 608 917 q 426 556 494 732 q 358 250 358 380 q 361 187 358 228 q 363 92 363 146 q 350 33 363 49 q 304 16 336 16 q 258 35 277 16 q 239 103 239 54 q 285 358 239 206 q 532 873 331 510 l 260 873 q 165 836 201 873 q 114 722 130 798 l 81 727 l 119 955 l 608 955 z "},"8":{"ha":694,"x_min":54,"x_max":608,"o":"m 165 391 q 148 358 165 391 q 130 250 130 326 q 187 109 130 163 q 331 54 244 54 q 480 109 434 54 q 526 244 526 163 q 461 380 526 315 q 266 499 396 445 q 165 391 201 456 m 564 401 q 586 369 564 401 q 608 260 608 336 q 532 87 608 157 q 331 16 456 16 q 136 87 217 16 q 54 250 54 157 q 100 407 54 342 q 233 521 146 472 q 117 616 157 559 q 76 743 76 673 q 146 901 76 836 q 342 966 217 966 q 526 901 456 966 q 597 743 597 836 q 556 621 597 678 q 429 521 515 564 q 564 401 521 467 m 488 624 q 505 648 488 624 q 521 738 521 673 q 477 871 521 814 q 342 928 434 928 q 195 873 239 928 q 152 760 152 819 q 214 643 152 700 q 391 543 277 586 q 488 624 456 575 z "},"9":{"ha":694,"x_min":54,"x_max":613,"o":"m 190 854 q 168 818 190 854 q 146 667 146 781 q 193 486 146 548 q 309 423 239 423 q 450 499 391 423 q 510 640 510 575 q 467 849 510 770 q 326 928 423 928 q 190 854 233 928 m 429 418 q 401 396 429 418 q 293 374 374 374 q 119 442 184 374 q 54 662 54 510 q 125 879 54 792 q 326 966 195 966 q 537 857 461 966 q 613 543 613 749 q 524 165 613 315 q 277 16 434 16 q 155 49 206 16 q 103 136 103 81 q 117 179 103 157 q 163 201 130 201 q 206 176 195 201 q 217 119 217 152 q 222 84 217 98 q 233 65 228 71 q 252 57 239 60 q 282 54 266 54 q 439 163 380 54 q 510 526 499 271 q 429 418 483 461 z "}," ":{"ha":694,"x_min":0,"x_max":0,"o":""},"!":{"ha":694,"x_min":260,"x_max":412,"o":"m 391 33 q 380 22 391 33 q 336 11 369 11 q 282 33 304 11 q 260 87 260 54 q 282 141 260 119 q 336 163 304 163 q 391 141 369 163 q 412 87 412 119 q 391 33 412 54 m 377 670 q 368 595 377 670 q 358 374 358 521 l 358 320 l 315 320 l 315 374 q 296 670 315 521 q 277 890 277 819 q 290 958 277 933 q 336 982 304 982 q 385 955 374 982 q 396 890 396 928 q 377 670 396 819 z "},"\"":{"ha":694,"x_min":206,"x_max":521,"o":"m 244 700 l 206 998 q 212 1047 206 1025 q 228 1074 217 1069 q 282 1082 260 1096 q 315 1058 304 1069 q 323 1039 320 1053 q 326 1009 326 1025 l 271 700 q 263 686 271 689 q 244 700 255 684 m 404 1055 q 408 1065 404 1055 q 423 1080 412 1074 q 475 1085 450 1096 q 510 1063 499 1074 q 518 1039 515 1053 q 515 1009 521 1025 l 445 705 q 437 692 445 694 q 418 705 429 689 l 396 1015 q 404 1055 396 1036 z "},"#":{"ha":694,"x_min":43,"x_max":635,"o":"m 429 16 l 445 255 l 195 255 l 179 16 l 130 16 l 146 255 l 43 255 l 43 358 l 152 358 l 179 640 l 43 640 l 43 743 l 184 743 l 201 966 l 250 966 l 233 743 l 483 743 l 499 966 l 548 966 l 532 743 l 635 743 l 635 640 l 526 640 l 499 358 l 635 358 l 635 255 l 494 255 l 477 16 l 429 16 m 228 640 l 201 358 l 450 358 l 477 640 l 228 640 z "},"$":{"ha":694,"x_min":87,"x_max":575,"o":"m 369 22 l 369 -119 l 320 -119 l 320 22 q 157 76 228 22 q 87 222 87 130 q 106 274 87 250 q 157 298 125 298 q 203 282 190 298 q 217 233 217 266 q 201 184 217 201 q 184 136 184 168 q 225 81 184 103 q 320 60 266 60 l 320 472 q 141 643 168 586 q 114 743 114 700 q 176 887 114 825 q 320 960 239 949 l 320 1058 l 369 1058 l 369 960 q 507 909 450 960 q 564 798 564 857 q 545 727 564 749 q 494 705 526 705 q 453 716 467 705 q 439 754 439 727 q 456 789 439 776 q 472 841 472 803 q 448 892 472 863 q 369 922 423 922 l 369 570 q 518 423 461 494 q 575 271 575 353 q 507 90 575 146 q 369 22 439 33 m 369 439 l 369 65 q 453 100 412 65 q 494 233 494 136 q 464 339 494 288 q 369 439 434 391 m 233 876 q 214 859 233 876 q 195 770 195 841 q 225 686 195 727 q 320 597 255 646 l 320 922 q 233 876 271 911 z "},"%":{"ha":694,"x_min":11,"x_max":656,"o":"m 220 873 q 213 901 220 873 q 157 928 206 928 q 103 884 125 928 q 81 722 81 841 q 106 545 81 586 q 157 505 130 505 q 214 553 195 505 q 233 722 233 602 q 220 873 233 819 m 263 898 q 283 864 263 898 q 304 716 304 830 q 271 545 304 618 q 157 472 239 472 q 52 537 92 472 q 11 716 11 602 q 54 901 11 836 q 157 966 98 966 q 263 898 222 966 m 567 100 q 576 123 567 100 q 586 266 586 146 q 570 418 586 358 q 510 477 553 477 q 456 426 477 477 q 434 266 434 374 q 458 92 434 130 q 510 54 483 54 q 567 100 548 54 m 616 445 q 636 410 616 445 q 656 260 656 374 q 618 84 656 152 q 510 16 581 16 q 407 84 450 16 q 363 260 363 152 q 407 448 363 380 q 510 515 450 515 q 616 445 575 515 m 505 966 l 543 949 l 152 16 l 119 33 l 505 966 z "},"&":{"ha":694,"x_min":11,"x_max":667,"o":"m 320 355 q 342 313 320 355 q 412 217 363 271 q 453 323 439 260 q 467 461 467 385 q 456 502 467 488 q 418 515 445 515 l 391 515 l 391 548 l 608 548 l 608 515 l 586 515 q 543 499 559 515 q 521 450 526 483 q 486 288 505 358 q 439 179 467 217 q 507 106 477 130 q 564 81 537 81 q 610 103 591 81 q 646 168 629 125 l 667 157 q 621 52 656 87 q 526 16 586 16 q 467 38 499 16 q 391 109 434 60 q 307 38 353 60 q 212 16 260 16 q 73 87 136 16 q 11 260 11 157 q 46 410 11 342 q 152 532 81 477 q 125 646 136 586 q 114 760 114 705 q 163 911 114 857 q 271 966 212 966 q 385 917 353 966 q 418 803 418 868 q 374 648 418 716 q 239 543 331 581 q 320 355 277 439 m 111 418 q 102 393 111 418 q 92 304 92 369 q 136 130 92 184 q 255 76 179 76 q 315 90 288 76 q 363 136 342 103 q 252 301 304 206 q 163 499 201 396 q 111 418 130 467 m 315 665 q 328 696 315 665 q 342 808 342 727 q 328 903 342 873 q 271 933 315 933 q 214 903 244 933 q 184 792 184 873 q 195 681 184 738 q 228 575 206 624 q 315 665 288 602 z "},"'":{"ha":694,"x_min":250,"x_max":374,"o":"m 258 1082 q 262 1092 258 1082 q 277 1107 266 1101 q 328 1112 304 1123 q 363 1090 353 1101 q 372 1066 369 1080 q 369 1036 374 1053 l 309 732 q 301 719 309 722 q 282 732 293 716 l 250 1042 q 258 1082 250 1063 z "},"(":{"ha":694,"x_min":293,"x_max":624,"o":"m 597 1123 l 624 1096 q 437 817 499 966 q 374 505 374 667 q 437 190 374 336 q 624 -87 499 43 l 597 -114 q 369 176 445 22 q 293 505 293 331 q 369 827 293 673 q 597 1123 445 982 z "},")":{"ha":694,"x_min":54,"x_max":385,"o":"m 241 817 q 210 891 241 817 q 54 1096 179 966 l 81 1123 q 309 827 233 982 q 385 505 385 673 q 309 176 385 331 q 81 -114 233 22 l 54 -87 q 241 190 179 43 q 304 505 304 336 q 241 817 304 667 z "},"*":{"ha":694,"x_min":60,"x_max":646,"o":"m 621 578 q 609 571 621 578 q 543 548 597 564 l 391 499 l 532 396 q 594 339 586 358 q 602 304 602 320 q 583 260 602 271 q 543 255 564 250 q 521 266 543 250 q 472 320 499 282 l 353 472 l 222 293 q 179 252 195 260 q 152 244 163 244 q 114 260 130 244 q 98 293 98 277 q 111 323 98 309 q 212 412 125 336 l 309 494 l 152 543 q 87 567 114 553 q 60 613 60 581 q 76 654 60 640 q 119 667 92 667 q 144 662 130 667 q 179 640 157 656 l 331 537 l 304 732 q 301 762 304 749 q 298 787 298 776 q 315 827 298 808 q 353 846 331 846 q 401 827 391 846 q 412 798 412 808 q 410 768 412 787 q 401 722 407 749 l 374 537 l 521 635 q 562 662 543 651 q 597 667 581 673 q 632 651 618 667 q 646 613 646 635 q 621 578 646 591 z "},"+":{"ha":694,"x_min":54,"x_max":646,"o":"m 54 537 l 326 537 l 326 846 l 374 846 l 374 537 l 646 537 l 646 488 l 374 488 l 374 179 l 326 179 l 326 488 l 54 488 l 54 537 z "},",":{"ha":694,"x_min":114,"x_max":304,"o":"m 179 60 q 157 71 179 60 q 136 125 136 81 q 155 168 136 146 q 212 190 174 190 q 279 155 255 190 q 304 81 304 119 q 260 -60 304 5 q 136 -157 217 -125 l 114 -130 q 195 -62 168 -98 q 222 11 222 -27 q 179 60 222 38 z "},"-":{"ha":694,"x_min":38,"x_max":640,"o":"m 640 488 l 38 488 l 38 537 l 640 537 l 640 488 z "},".":{"ha":694,"x_min":87,"x_max":250,"o":"m 225 33 q 213 22 225 33 q 168 11 201 11 q 111 33 136 11 q 87 92 87 54 q 111 152 87 130 q 168 174 136 174 q 225 149 201 174 q 250 92 250 125 q 225 33 250 54 z "},"/":{"ha":694,"x_min":43,"x_max":635,"o":"m 635 1063 l 81 -98 l 43 -76 l 597 1085 l 635 1063 z "},":":{"ha":694,"x_min":255,"x_max":407,"o":"m 385 651 q 396 640 385 651 q 407 597 407 629 q 385 543 407 564 q 331 521 363 521 q 277 543 298 521 q 255 597 255 564 q 277 651 255 629 q 331 673 298 673 q 385 651 363 673 m 385 141 q 396 130 385 141 q 407 87 407 119 q 385 33 407 54 q 331 11 363 11 q 277 33 298 11 q 255 87 255 54 q 277 141 255 119 q 331 163 298 163 q 385 141 363 163 z "},";":{"ha":694,"x_min":271,"x_max":396,"o":"m 396 646 l 396 526 l 271 526 l 271 646 l 396 646 m 396 146 l 396 27 l 326 -119 l 271 -119 l 326 27 l 271 27 l 271 146 l 396 146 z "},"<":{"ha":694,"x_min":81,"x_max":597,"o":"m 564 22 l 81 505 l 564 987 l 597 955 l 146 505 l 597 54 l 564 22 z "},"=":{"ha":694,"x_min":38,"x_max":640,"o":"m 640 618 l 38 618 l 38 667 l 640 667 l 640 618 m 640 342 l 38 342 l 38 391 l 640 391 l 640 342 z "},">":{"ha":694,"x_min":87,"x_max":602,"o":"m 119 987 l 602 505 l 119 22 l 87 54 l 537 505 l 87 955 l 119 987 z "},"?":{"ha":694,"x_min":65,"x_max":618,"o":"m 184 635 q 176 629 184 635 q 141 624 168 624 q 87 646 109 624 q 65 727 65 667 q 146 903 65 825 q 347 982 228 982 q 543 911 467 982 q 618 727 618 841 q 597 616 618 667 q 499 521 575 564 q 382 442 418 472 q 347 353 347 412 l 347 255 l 304 255 l 304 363 q 323 458 304 423 q 391 526 342 494 q 496 624 472 581 q 521 732 521 667 q 475 884 521 836 q 336 933 429 933 q 184 882 239 933 q 130 781 130 830 q 138 757 130 765 q 163 738 146 749 q 193 711 184 727 q 201 673 201 694 q 184 635 201 646 m 385 141 q 396 130 385 141 q 407 87 407 119 q 385 33 407 54 q 331 11 363 11 q 277 33 298 11 q 255 87 255 54 q 277 141 255 119 q 331 163 298 163 q 385 141 363 163 z "},"@":{"ha":694,"x_min":49,"x_max":656,"o":"m 361 255 q 346 244 361 255 q 293 233 331 233 q 231 277 260 233 q 201 407 201 320 q 266 659 201 526 q 412 792 331 792 q 448 781 434 792 q 467 749 461 770 l 477 798 l 537 798 l 488 456 q 477 380 483 412 q 472 331 472 347 q 480 298 472 309 q 499 288 488 288 q 575 363 543 288 q 608 570 608 439 q 534 857 608 787 q 380 928 461 928 q 203 827 282 928 q 125 483 125 727 q 190 165 125 271 q 363 60 255 60 q 507 103 445 60 q 613 233 570 146 l 651 222 q 526 65 597 114 q 363 16 456 16 q 136 149 222 16 q 49 483 49 282 q 146 836 49 705 q 380 966 244 966 q 575 873 494 966 q 656 575 656 781 q 602 323 656 412 q 483 233 548 233 q 437 255 456 233 q 412 326 418 277 q 361 255 391 277 m 282 298 q 288 288 282 298 q 315 277 293 277 q 374 315 347 277 q 418 429 401 353 l 456 694 q 448 743 461 727 q 412 760 434 760 q 323 648 374 760 q 271 369 271 537 q 282 298 271 320 z "},"A":{"ha":694,"x_min":5,"x_max":662,"o":"m 488 136 l 434 374 l 190 374 l 141 168 q 141 90 130 119 q 190 60 152 60 l 206 60 l 206 27 l 5 27 l 5 60 l 22 60 q 60 73 43 60 q 81 119 76 87 l 293 949 l 374 977 l 581 119 q 608 73 591 87 q 646 60 624 60 l 662 60 l 662 27 l 429 27 l 429 60 l 450 60 q 491 79 483 60 q 488 136 499 98 m 429 407 l 320 857 l 315 857 l 201 407 l 429 407 z "},"B":{"ha":694,"x_min":16,"x_max":640,"o":"m 358 27 l 16 27 l 16 60 l 60 60 q 98 71 87 60 q 109 103 109 81 l 109 879 q 98 911 109 901 q 60 922 87 922 l 27 922 l 27 955 l 342 955 q 534 903 472 955 q 597 743 597 852 q 564 618 597 667 q 429 532 532 570 q 597 423 553 494 q 640 266 640 353 q 564 92 640 157 q 358 27 488 27 m 244 60 l 342 60 q 486 117 434 60 q 537 277 537 174 q 483 453 537 396 q 320 510 429 510 l 195 510 l 195 103 q 209 71 195 81 q 244 60 222 60 m 450 591 q 477 616 450 591 q 505 743 505 640 q 450 882 505 841 q 309 922 396 922 l 244 922 q 209 911 222 922 q 195 879 195 901 l 195 543 l 336 543 q 450 591 396 543 z "},"C":{"ha":694,"x_min":38,"x_max":640,"o":"m 540 90 q 503 53 540 90 q 369 16 467 16 q 127 130 217 16 q 38 488 38 244 q 133 830 38 694 q 391 966 228 966 q 467 952 429 966 q 532 939 505 939 q 567 944 553 939 q 591 966 581 949 l 640 727 l 608 716 q 521 873 575 819 q 380 928 467 928 q 203 803 266 928 q 141 494 141 678 q 195 179 141 293 q 374 65 250 65 q 524 127 461 65 q 608 293 586 190 l 640 277 q 540 90 613 163 z "},"D":{"ha":694,"x_min":22,"x_max":640,"o":"m 456 149 q 496 194 456 149 q 537 499 537 239 q 467 827 537 732 q 271 922 396 922 q 214 911 233 922 q 195 879 195 901 l 195 103 q 212 71 195 81 q 255 60 228 60 q 456 149 374 60 m 109 103 l 109 879 q 98 911 109 901 q 60 922 87 922 l 27 922 l 27 955 l 271 955 q 540 846 439 955 q 640 510 640 738 q 543 144 640 260 q 255 27 445 27 l 22 27 l 22 60 l 60 60 q 98 71 87 60 q 109 103 109 81 z "},"E":{"ha":694,"x_min":33,"x_max":646,"o":"m 65 922 l 38 922 l 38 955 l 570 955 l 629 770 l 602 760 q 510 882 559 841 q 401 922 461 922 l 250 922 q 214 911 228 922 q 201 879 201 901 l 201 543 l 358 543 q 437 570 412 543 q 461 651 461 597 l 461 684 l 494 684 l 494 363 l 461 363 l 461 385 q 437 477 461 445 q 358 510 412 510 l 201 510 l 201 103 q 214 71 201 81 q 250 60 228 60 l 391 60 q 529 106 472 60 q 618 250 586 152 l 646 239 l 586 27 l 33 27 l 33 60 l 65 60 q 103 71 92 60 q 114 103 114 81 l 114 879 q 103 911 114 901 q 65 922 92 922 z "},"F":{"ha":694,"x_min":27,"x_max":662,"o":"m 250 60 l 288 60 l 288 27 l 27 27 l 27 60 l 65 60 q 103 71 92 60 q 114 103 114 81 l 114 879 q 103 911 114 901 q 65 922 92 922 l 33 922 l 33 955 l 597 955 l 662 760 l 635 749 q 532 879 591 836 q 401 922 472 922 l 250 922 q 214 911 228 922 q 201 879 201 901 l 201 532 l 380 532 q 458 556 434 532 q 483 635 483 581 l 483 662 l 515 662 l 515 347 l 483 347 l 483 369 q 458 467 483 434 q 380 499 434 499 l 201 499 l 201 103 q 214 71 201 81 q 250 60 228 60 z "},"G":{"ha":694,"x_min":33,"x_max":662,"o":"m 467 876 q 442 902 467 876 q 347 928 418 928 q 198 817 266 928 q 130 477 130 705 q 182 190 130 326 q 353 54 233 54 q 448 79 412 54 q 488 152 483 103 l 488 336 q 472 385 488 369 q 423 401 456 401 l 391 401 l 391 434 l 662 434 l 662 401 l 635 401 q 591 385 608 401 q 575 342 575 369 l 575 71 q 556 79 564 76 q 537 81 548 81 q 515 79 526 81 q 494 65 505 76 q 426 27 461 38 q 347 16 391 16 q 109 160 184 16 q 33 477 33 304 q 122 822 33 678 q 347 966 212 966 q 423 949 380 966 q 477 933 467 933 q 510 941 494 933 q 537 966 526 949 l 581 722 l 548 711 q 467 876 515 825 z "},"H":{"ha":694,"x_min":16,"x_max":662,"o":"m 586 879 l 586 103 q 600 71 586 81 q 635 60 613 60 l 662 60 l 662 27 l 423 27 l 423 60 l 450 60 q 488 71 477 60 q 499 103 499 81 l 499 499 l 179 499 l 179 103 q 193 71 179 81 q 228 60 206 60 l 255 60 l 255 27 l 16 27 l 16 60 l 43 60 q 81 71 71 60 q 92 103 92 81 l 92 879 q 81 911 92 901 q 43 922 71 922 l 22 922 l 22 955 l 250 955 l 250 922 l 228 922 q 193 911 206 922 q 179 879 179 901 l 179 532 l 499 532 l 499 879 q 488 911 499 901 q 450 922 477 922 l 429 922 l 429 955 l 656 955 l 656 922 l 635 922 q 600 911 613 922 q 586 879 586 901 z "},"I":{"ha":694,"x_min":125,"x_max":559,"o":"m 250 922 l 125 922 l 125 955 l 559 955 l 559 922 l 434 922 q 399 911 412 922 q 385 879 385 901 l 385 103 q 399 71 385 81 q 434 60 412 60 l 559 60 l 559 27 l 125 27 l 125 60 l 250 60 q 288 71 277 60 q 298 103 298 81 l 298 879 q 288 911 298 901 q 250 922 277 922 z "},"J":{"ha":694,"x_min":71,"x_max":662,"o":"m 396 282 l 396 852 q 388 909 396 895 q 347 922 380 922 l 217 922 l 217 955 l 662 955 l 662 922 l 532 922 q 496 911 510 922 q 483 879 483 901 l 483 282 q 407 95 483 163 q 239 27 331 27 q 114 60 157 27 q 71 136 71 92 q 90 184 71 168 q 130 201 109 201 q 174 182 157 201 q 190 136 190 163 q 187 117 190 125 q 174 98 184 109 q 206 73 184 81 q 239 65 228 65 q 353 111 309 65 q 396 282 396 157 z "},"K":{"ha":694,"x_min":27,"x_max":662,"o":"m 662 60 l 662 27 l 429 27 l 429 60 l 445 60 q 483 81 477 60 q 467 141 488 103 l 282 537 l 195 412 l 195 103 q 209 71 195 81 q 244 60 222 60 l 277 60 l 277 27 l 27 27 l 27 60 l 60 60 q 98 71 87 60 q 109 103 109 81 l 109 879 q 98 911 109 901 q 60 922 87 922 l 27 922 l 27 955 l 277 955 l 277 922 l 244 922 q 209 911 222 922 q 195 879 195 901 l 195 483 l 450 846 q 467 903 477 884 q 418 922 456 922 l 396 922 l 396 955 l 629 955 l 629 922 l 618 922 q 564 906 591 922 q 510 857 537 890 l 336 618 l 570 119 q 605 73 586 87 q 635 60 624 60 l 662 60 z "},"L":{"ha":694,"x_min":38,"x_max":646,"o":"m 212 879 l 212 103 q 225 71 212 81 q 260 60 239 60 l 407 60 q 537 106 483 60 q 618 250 591 152 l 646 239 l 597 27 l 38 27 l 38 60 l 76 60 q 114 71 103 60 q 125 103 125 81 l 125 879 q 114 911 125 901 q 76 922 103 922 l 43 922 l 43 955 l 298 955 l 298 922 l 260 922 q 225 911 239 922 q 212 879 212 901 z "},"M":{"ha":694,"x_min":5,"x_max":673,"o":"m 602 879 l 602 103 q 616 71 602 81 q 651 60 629 60 l 673 60 l 673 27 l 439 27 l 439 60 l 467 60 q 505 71 494 60 q 515 103 515 81 l 515 814 l 505 814 l 320 27 l 288 27 l 119 798 l 109 798 l 109 103 q 122 71 109 81 q 157 60 136 60 l 174 60 l 174 27 l 11 27 l 11 60 l 27 60 q 65 71 54 60 q 76 103 76 81 l 76 879 q 65 911 76 901 q 27 922 54 922 l 5 922 l 5 955 l 163 955 l 320 228 l 331 228 l 499 955 l 673 955 l 673 922 l 651 922 q 616 911 629 922 q 602 879 602 901 z "},"N":{"ha":694,"x_min":5,"x_max":678,"o":"m 174 955 l 543 244 l 553 244 l 553 879 q 543 911 553 901 q 505 922 532 922 l 461 922 l 461 955 l 678 955 l 678 922 l 635 922 q 600 911 613 922 q 586 879 586 901 l 586 27 l 553 27 l 141 836 l 130 836 l 130 103 q 144 71 130 81 q 179 60 157 60 l 222 60 l 222 27 l 5 27 l 5 60 l 49 60 q 87 71 76 60 q 98 103 98 81 l 98 879 q 87 911 98 901 q 49 922 76 922 l 16 922 l 16 955 l 174 955 z "},"O":{"ha":694,"x_min":43,"x_max":651,"o":"m 201 819 q 174 765 201 819 q 146 494 146 711 q 203 155 146 260 q 347 49 260 49 q 494 149 439 49 q 548 494 548 250 q 502 808 548 689 q 347 928 456 928 q 201 819 255 928 m 570 827 q 610 758 570 827 q 651 494 651 689 q 564 144 651 271 q 347 16 477 16 q 133 146 222 16 q 43 494 43 277 q 127 836 43 705 q 347 966 212 966 q 570 827 488 966 z "},"P":{"ha":694,"x_min":27,"x_max":635,"o":"m 369 461 l 201 461 l 201 103 q 214 71 201 81 q 250 60 228 60 l 288 60 l 288 27 l 27 27 l 27 60 l 65 60 q 103 71 92 60 q 114 103 114 81 l 114 879 q 103 911 114 901 q 65 922 92 922 l 33 922 l 33 955 l 353 955 q 562 887 488 955 q 635 716 635 819 q 556 526 635 591 q 369 461 477 461 m 201 494 l 336 494 q 480 543 418 494 q 543 711 543 591 q 491 871 543 819 q 326 922 439 922 l 250 922 q 214 911 228 922 q 201 879 201 901 l 201 494 z "},"Q":{"ha":694,"x_min":38,"x_max":646,"o":"m 377 60 q 384 60 377 60 q 396 65 391 60 q 358 198 380 146 q 293 250 336 250 q 241 228 271 250 q 212 157 212 206 q 250 90 212 119 q 342 60 288 60 q 377 60 363 60 m 222 279 q 236 292 222 279 q 304 304 250 304 q 404 258 369 304 q 467 119 439 212 q 524 241 505 146 q 543 494 543 336 q 496 817 543 705 q 342 928 450 928 q 195 819 250 928 q 141 494 141 711 q 149 312 141 385 q 174 206 157 239 q 222 279 195 255 m 385 22 q 377 22 385 22 q 342 22 369 22 q 130 130 222 22 q 38 494 38 239 q 119 838 38 711 q 342 966 201 966 q 559 844 472 966 q 646 494 646 722 q 600 206 646 304 q 488 60 553 109 q 515 5 499 22 q 548 -11 532 -11 q 586 0 570 -11 q 608 38 602 11 l 629 27 q 586 -68 613 -38 q 521 -98 559 -98 q 469 -81 494 -98 q 407 27 445 -65 q 385 22 401 22 z "},"R":{"ha":694,"x_min":38,"x_max":662,"o":"m 540 901 q 574 873 540 901 q 608 738 608 846 q 548 570 608 629 q 412 499 488 510 l 575 98 q 600 68 586 76 q 629 60 613 60 l 662 60 l 662 27 l 510 27 l 331 494 l 206 494 l 206 103 q 220 71 206 81 q 255 60 233 60 l 288 60 l 288 27 l 38 27 l 38 60 l 71 60 q 109 71 98 60 q 119 103 119 81 l 119 879 q 109 911 119 901 q 71 922 98 922 l 38 922 l 38 955 l 347 955 q 540 901 472 955 m 206 879 l 206 526 l 326 526 q 461 575 407 526 q 515 727 515 624 q 467 871 515 819 q 315 922 418 922 l 255 922 q 220 911 233 922 q 206 879 206 901 z "},"S":{"ha":694,"x_min":54,"x_max":608,"o":"m 480 372 q 454 397 480 372 q 320 472 429 423 q 119 586 174 537 q 65 738 65 635 q 133 892 65 819 q 326 966 201 966 q 429 947 380 966 q 499 928 477 928 q 529 936 515 928 q 553 966 543 944 l 575 743 l 548 732 q 448 887 499 846 q 315 928 396 928 q 174 871 212 928 q 136 749 136 814 q 171 654 136 689 q 363 548 206 618 q 551 426 494 494 q 608 266 608 358 q 540 92 608 168 q 342 16 472 16 q 241 35 288 16 q 168 54 195 54 q 136 43 152 54 q 98 16 119 33 l 54 282 l 87 293 q 193 106 125 157 q 347 54 260 54 q 486 109 439 54 q 532 266 532 163 q 480 372 532 320 z "},"T":{"ha":694,"x_min":33,"x_max":640,"o":"m 477 60 l 477 27 l 195 27 l 195 60 l 244 60 q 282 71 271 60 q 293 103 293 81 l 293 863 q 288 911 293 906 q 244 917 282 917 q 138 890 168 917 q 65 743 109 863 l 33 749 l 81 955 l 597 955 l 640 749 l 613 743 q 545 887 570 857 q 445 917 521 917 q 385 911 391 917 q 380 857 380 906 l 380 103 q 393 71 380 81 q 429 60 407 60 l 477 60 z "},"U":{"ha":694,"x_min":16,"x_max":656,"o":"m 225 98 q 248 79 225 98 q 347 60 271 60 q 486 114 429 60 q 543 250 543 168 l 543 879 q 532 911 543 901 q 494 922 521 922 l 461 922 l 461 955 l 656 955 l 656 922 l 624 922 q 589 911 602 922 q 575 879 575 901 l 575 250 q 502 79 575 141 q 336 16 429 16 q 165 71 239 16 q 92 244 92 125 l 92 879 q 81 911 92 901 q 43 922 71 922 l 16 922 l 16 955 l 255 955 l 255 922 l 228 922 q 193 911 206 922 q 179 879 179 901 l 179 244 q 225 98 179 136 z "},"V":{"ha":694,"x_min":16,"x_max":651,"o":"m 472 922 l 456 922 l 456 955 l 651 955 l 651 922 l 629 922 q 589 906 608 922 q 559 846 570 890 l 336 27 l 304 27 l 103 846 q 84 903 98 884 q 43 922 71 922 l 16 922 l 16 955 l 250 955 l 250 922 l 228 922 q 193 906 201 922 q 190 863 184 890 l 342 228 l 353 228 l 515 846 q 515 903 526 884 q 472 922 505 922 z "},"W":{"ha":694,"x_min":5,"x_max":678,"o":"m 515 955 l 678 955 l 678 922 l 656 922 q 632 911 646 922 q 613 873 618 901 l 467 27 l 434 27 l 347 602 l 336 602 l 222 27 l 190 27 l 60 879 q 52 911 60 901 q 27 922 43 922 l 5 922 l 5 955 l 195 955 l 195 922 l 179 922 q 146 911 157 922 q 136 879 136 901 l 222 282 l 233 282 l 326 732 l 309 879 q 296 911 309 901 q 271 922 282 922 l 255 922 l 255 955 l 439 955 l 439 922 l 423 922 q 393 911 401 922 q 385 879 385 901 l 467 298 l 477 298 l 575 868 q 567 909 581 895 q 532 922 553 922 l 515 922 l 515 955 z "},"X":{"ha":694,"x_min":33,"x_max":656,"o":"m 543 879 l 374 526 l 564 119 q 600 73 581 87 q 640 60 618 60 l 656 60 l 656 27 l 423 27 l 423 60 l 445 60 q 480 73 472 60 q 477 109 488 87 l 331 429 l 206 168 q 187 122 195 141 q 179 98 179 103 q 193 68 179 76 q 228 60 206 60 l 239 60 l 239 27 l 33 27 l 33 60 l 54 60 q 103 76 81 60 q 136 114 125 92 l 309 483 l 125 884 q 106 911 119 901 q 71 922 92 922 l 49 922 l 49 955 l 271 955 l 271 922 l 255 922 q 217 906 222 922 q 222 857 212 890 l 353 570 l 483 846 q 494 903 499 884 q 456 922 488 922 l 423 922 l 423 955 l 635 955 l 635 922 l 602 922 q 575 911 591 922 q 543 879 559 901 z "},"Y":{"ha":694,"x_min":27,"x_max":651,"o":"m 358 456 l 510 857 q 502 906 515 890 q 450 922 488 922 l 439 922 l 439 955 l 651 955 l 651 922 l 635 922 q 586 903 608 922 q 548 846 564 884 l 380 418 l 380 103 q 393 71 380 81 q 429 60 407 60 l 477 60 l 477 27 l 195 27 l 195 60 l 244 60 q 282 71 271 60 q 293 103 293 81 l 293 385 l 109 863 q 81 906 98 890 q 38 922 65 922 l 27 922 l 27 955 l 266 955 l 266 922 l 233 922 q 195 906 201 922 q 201 857 190 890 l 347 456 l 358 456 z "},"Z":{"ha":694,"x_min":43,"x_max":629,"o":"m 152 60 l 385 60 q 507 106 456 60 q 591 244 559 152 l 624 239 l 564 27 l 43 27 l 521 922 l 331 922 q 203 882 260 922 q 103 760 146 841 l 71 770 l 136 955 l 629 955 l 152 60 z "},"[":{"ha":694,"x_min":266,"x_max":591,"o":"m 266 1107 l 591 1107 l 591 1058 l 320 1058 l 320 -49 l 591 -49 l 591 -98 l 266 -98 l 266 1107 z "},"\\":{"ha":694,"x_min":98,"x_max":624,"o":"m 559 -141 l 98 1015 l 163 1015 l 624 -141 l 559 -141 z "},"]":{"ha":694,"x_min":87,"x_max":412,"o":"m 412 1107 l 412 -98 l 87 -98 l 87 -49 l 358 -49 l 358 1058 l 87 1058 l 87 1107 l 412 1107 z "},"^":{"ha":694,"x_min":157,"x_max":521,"o":"m 277 1128 l 407 1128 l 521 982 l 510 971 l 342 1080 l 168 971 l 157 982 l 277 1128 z "},"_":{"ha":694,"x_min":0,"x_max":684,"o":"m 684 -184 l 0 -184 l 0 -152 l 684 -152 l 684 -184 z "},"`":{"ha":694,"x_min":109,"x_max":385,"o":"m 119 1128 l 266 1128 l 385 1009 l 380 987 l 109 1112 l 119 1128 z "},"a":{"ha":694,"x_min":54,"x_max":662,"o":"m 372 41 q 349 31 372 41 q 260 22 326 22 q 109 68 163 22 q 54 174 54 114 q 138 334 54 271 q 472 423 222 396 l 472 488 q 448 578 472 543 q 336 613 423 613 q 206 583 244 613 q 179 521 168 553 q 179 477 190 499 q 136 456 168 456 q 100 469 114 456 q 87 510 87 483 q 157 602 87 559 q 331 646 228 646 q 494 605 439 646 q 548 488 548 564 l 548 130 q 556 79 548 87 q 586 71 564 71 q 624 95 613 71 q 635 163 635 119 l 662 163 q 635 57 662 87 q 564 27 608 27 q 505 43 526 27 q 472 98 483 60 q 372 41 418 60 m 217 317 q 182 292 217 317 q 146 190 146 266 q 176 100 146 141 q 271 60 206 60 q 369 79 320 60 q 472 136 418 98 l 472 391 q 217 317 288 369 z "},"b":{"ha":694,"x_min":27,"x_max":613,"o":"m 184 998 l 184 510 q 271 605 212 570 q 385 640 331 640 q 556 562 499 640 q 613 331 613 483 q 540 100 613 179 q 358 22 467 22 q 258 41 304 22 q 179 92 212 60 l 130 27 l 109 27 l 109 879 q 98 911 109 901 q 60 922 87 922 l 27 922 l 27 955 l 76 955 q 130 966 103 955 q 184 998 157 977 m 184 423 l 184 206 q 225 103 184 146 q 347 60 266 60 q 486 127 445 60 q 526 331 526 195 q 491 529 526 461 q 380 597 456 597 q 266 559 315 597 q 184 423 217 521 z "},"c":{"ha":694,"x_min":76,"x_max":602,"o":"m 475 453 q 468 460 475 453 q 461 488 461 467 q 464 510 461 505 q 472 532 467 515 q 450 583 477 553 q 358 613 423 613 q 220 534 277 613 q 163 326 163 456 q 212 133 163 206 q 374 60 260 60 q 502 109 450 60 q 575 222 553 157 l 602 212 q 521 73 581 130 q 358 16 461 16 q 152 98 228 16 q 76 331 76 179 q 157 556 76 467 q 369 646 239 646 q 513 597 461 646 q 564 499 564 548 q 551 453 564 467 q 510 439 537 439 q 475 453 488 439 z "},"d":{"ha":694,"x_min":76,"x_max":651,"o":"m 494 217 l 494 515 q 423 578 467 559 q 336 597 380 597 q 209 521 255 597 q 163 320 163 445 q 206 127 163 190 q 331 65 250 65 q 431 103 391 65 q 494 217 472 141 m 420 52 q 397 37 420 52 q 315 22 374 22 q 146 100 217 22 q 76 331 76 179 q 152 556 76 472 q 331 640 228 640 q 420 621 374 640 q 494 564 467 602 l 494 857 q 483 906 494 890 q 445 922 472 922 l 401 922 l 401 955 l 461 955 q 515 966 488 955 q 570 998 543 977 l 570 141 q 581 103 570 114 q 613 92 591 92 l 651 92 l 651 60 l 618 60 q 567 52 597 60 q 505 27 537 43 l 494 27 l 494 130 q 420 52 467 81 z "},"e":{"ha":694,"x_min":81,"x_max":608,"o":"m 168 363 l 515 363 q 475 545 521 483 q 353 608 429 608 q 220 543 271 608 q 168 363 168 477 m 608 331 l 168 331 q 225 122 168 184 q 374 60 282 60 q 494 100 445 60 q 564 201 543 141 l 591 190 q 518 73 575 130 q 363 16 461 16 q 160 98 239 16 q 81 331 81 179 q 160 556 81 467 q 353 646 239 646 q 532 575 456 646 q 608 331 608 505 z "},"f":{"ha":694,"x_min":71,"x_max":651,"o":"m 239 635 l 239 727 q 309 898 239 841 q 467 955 380 955 q 605 922 559 955 q 651 846 651 890 q 640 808 651 825 q 597 792 629 792 q 562 803 575 792 q 548 841 548 814 q 551 857 548 846 q 553 873 553 868 q 537 909 553 895 q 461 922 521 922 q 355 882 396 922 q 315 743 315 841 l 315 635 l 543 635 l 543 602 l 315 602 l 315 103 q 328 71 315 81 q 363 60 342 60 l 494 60 l 494 27 l 98 27 l 98 60 l 190 60 q 228 71 217 60 q 239 103 239 81 l 239 602 l 71 602 l 71 635 l 239 635 z "},"g":{"ha":694,"x_min":71,"x_max":646,"o":"m 225 567 q 205 547 225 567 q 184 434 184 526 q 222 323 184 369 q 326 277 260 277 q 431 317 396 277 q 467 434 467 358 q 426 567 467 526 q 326 608 385 608 q 225 567 266 608 m 350 155 q 378 151 350 155 q 450 141 407 146 q 570 95 532 130 q 608 0 608 60 q 540 -130 608 -81 q 326 -179 472 -179 q 141 -133 212 -179 q 71 -27 71 -87 q 98 49 71 11 q 184 109 125 87 q 133 144 152 125 q 114 190 114 163 q 136 247 114 222 q 190 288 157 271 q 133 353 157 315 q 109 434 109 391 q 165 578 109 515 q 326 640 222 640 q 410 629 369 640 q 477 591 450 618 q 545 632 515 618 q 597 646 575 646 q 635 627 624 646 q 646 591 646 608 q 637 556 646 570 q 608 543 629 543 q 581 551 591 543 q 564 575 570 559 q 540 589 559 591 q 499 570 521 586 q 532 510 521 548 q 543 434 543 472 q 491 307 543 369 q 326 244 439 244 q 266 252 293 244 q 222 271 239 260 q 190 244 201 260 q 179 217 179 228 q 190 184 179 195 q 222 174 201 174 q 350 155 293 163 m 363 79 q 331 83 363 79 q 228 98 298 87 q 160 46 179 76 q 141 -27 141 16 q 190 -109 141 -71 q 336 -146 239 -146 q 483 -117 429 -146 q 537 -27 537 -87 q 524 33 537 11 q 483 60 510 54 q 363 79 429 71 z "},"h":{"ha":694,"x_min":33,"x_max":646,"o":"m 266 27 l 38 27 l 38 60 l 65 60 q 103 71 92 60 q 114 103 114 81 l 114 879 q 103 911 114 901 q 65 922 92 922 l 33 922 l 33 955 l 92 955 q 136 966 114 955 q 179 998 157 977 l 190 998 l 190 537 q 290 621 239 597 q 401 646 342 646 q 526 600 483 646 q 570 456 570 553 l 570 103 q 583 71 570 81 q 618 60 597 60 l 646 60 l 646 27 l 418 27 l 418 60 l 445 60 q 483 71 472 60 q 494 103 494 81 l 494 445 q 464 567 494 537 q 385 597 434 597 q 290 570 342 597 q 190 477 239 543 l 190 103 q 203 71 190 81 q 239 60 217 60 l 266 60 l 266 27 z "},"i":{"ha":694,"x_min":141,"x_max":543,"o":"m 304 103 l 304 553 q 293 589 304 575 q 255 602 282 602 l 141 602 l 141 635 l 195 635 q 288 643 244 635 q 369 673 331 651 l 380 673 l 380 103 q 393 71 380 81 q 429 60 407 60 l 543 60 l 543 27 l 141 27 l 141 60 l 255 60 q 293 71 282 60 q 304 103 304 81 m 298 947 q 309 956 298 947 q 347 966 320 966 q 396 947 374 966 q 418 901 418 928 q 396 852 418 873 q 347 830 374 830 q 298 852 320 830 q 277 901 277 873 q 298 947 277 928 z "},"j":{"ha":694,"x_min":103,"x_max":559,"o":"m 532 673 l 532 81 q 456 -109 532 -43 q 271 -174 380 -174 q 144 -146 184 -174 q 103 -81 103 -119 q 117 -46 103 -60 q 157 -33 130 -33 q 193 -49 184 -33 q 206 -81 201 -65 q 233 -122 217 -114 q 288 -130 250 -130 q 415 -84 374 -130 q 456 60 456 -38 l 456 553 q 445 589 456 575 q 407 602 434 602 l 298 602 l 298 635 l 347 635 q 439 643 396 635 q 521 673 483 651 l 532 673 m 439 947 q 450 956 439 947 q 488 966 461 966 q 540 947 521 966 q 559 901 559 928 q 540 852 559 873 q 488 830 521 830 q 439 852 461 830 q 418 901 418 873 q 439 947 418 928 z "},"k":{"ha":694,"x_min":38,"x_max":646,"o":"m 488 564 l 358 418 l 564 98 q 594 68 581 76 q 624 60 608 60 l 646 60 l 646 27 l 423 27 l 423 60 l 439 60 q 477 68 467 60 q 472 98 488 76 l 304 363 l 195 250 l 195 103 q 209 71 195 81 q 244 60 222 60 l 271 60 l 271 27 l 43 27 l 43 60 l 71 60 q 109 71 98 60 q 119 103 119 81 l 119 879 q 109 911 119 901 q 71 922 98 922 l 38 922 l 38 955 l 87 955 q 144 966 119 955 q 184 998 168 977 l 195 998 l 195 309 l 423 553 q 431 589 434 575 q 407 602 429 602 l 374 602 l 374 635 l 602 635 l 602 602 l 575 602 q 534 594 559 602 q 488 564 510 586 z "},"l":{"ha":694,"x_min":130,"x_max":553,"o":"m 136 955 l 195 955 q 288 966 244 955 q 369 998 331 977 l 380 998 l 380 103 q 393 71 380 81 q 429 60 407 60 l 553 60 l 553 27 l 130 27 l 130 60 l 255 60 q 293 71 282 60 q 304 103 304 81 l 304 879 q 293 911 304 901 q 255 922 282 922 l 136 922 l 136 955 z "},"m":{"ha":694,"x_min":11,"x_max":684,"o":"m 16 635 l 33 635 q 87 640 60 635 q 130 656 114 646 l 141 656 l 141 564 q 201 627 168 608 q 271 646 233 646 q 347 627 320 646 q 380 564 374 608 q 442 627 407 608 q 515 646 477 646 q 605 608 581 646 q 629 510 629 570 l 629 98 q 640 68 629 76 q 673 60 651 60 l 684 60 l 684 27 l 499 27 l 499 60 l 510 60 q 543 68 532 60 q 553 98 553 76 l 553 505 q 540 583 553 564 q 499 602 526 602 q 431 575 461 602 q 385 499 401 548 l 385 98 q 396 68 385 76 q 429 60 407 60 l 439 60 l 439 27 l 255 27 l 255 60 l 266 60 q 298 68 288 60 q 309 98 309 76 l 309 505 q 298 578 309 553 q 255 602 288 602 q 187 575 217 602 q 141 494 157 548 l 141 98 q 152 68 141 76 q 184 60 163 60 l 195 60 l 195 27 l 11 27 l 11 60 l 22 60 q 54 68 43 60 q 65 98 65 76 l 65 570 q 60 594 65 586 q 38 602 54 602 l 16 602 l 16 635 z "},"n":{"ha":694,"x_min":38,"x_max":646,"o":"m 266 27 l 38 27 l 38 60 l 65 60 q 103 71 92 60 q 114 103 114 81 l 114 570 q 109 594 114 586 q 87 602 103 602 l 43 602 l 43 635 l 81 635 q 133 640 109 635 q 179 662 157 646 l 190 662 l 190 537 q 288 618 239 591 q 391 646 336 646 q 526 597 483 646 q 570 450 570 548 l 570 103 q 583 71 570 81 q 618 60 597 60 l 646 60 l 646 27 l 418 27 l 418 60 l 445 60 q 483 71 472 60 q 494 103 494 81 l 494 467 q 467 567 494 532 q 385 602 439 602 q 285 570 336 602 q 190 477 233 537 l 190 103 q 203 71 190 81 q 239 60 217 60 l 266 60 l 266 27 z "},"o":{"ha":694,"x_min":60,"x_max":624,"o":"m 548 548 q 586 499 548 548 q 624 331 624 450 q 543 106 624 195 q 342 16 461 16 q 138 109 217 16 q 60 331 60 201 q 138 548 60 450 q 342 646 217 646 q 548 548 472 646 m 206 540 q 176 503 206 540 q 146 326 146 467 q 203 117 146 184 q 342 49 260 49 q 486 122 434 49 q 537 326 537 195 q 480 540 537 467 q 342 613 423 613 q 206 540 266 613 z "},"p":{"ha":694,"x_min":33,"x_max":624,"o":"m 206 -130 q 214 -136 206 -130 q 244 -141 222 -141 l 282 -141 l 282 -174 l 33 -174 l 33 -141 l 65 -141 q 103 -130 92 -141 q 114 -92 114 -119 l 114 548 q 103 583 114 570 q 65 597 92 597 l 33 597 l 33 629 l 81 629 q 133 635 109 629 q 179 656 157 640 l 190 656 l 190 532 q 274 613 228 586 q 374 640 320 640 q 553 567 483 640 q 624 336 624 494 q 548 103 624 184 q 369 22 472 22 q 269 41 309 22 q 190 98 228 60 l 190 -92 q 206 -130 190 -119 m 190 472 l 190 168 q 258 87 217 114 q 353 60 298 60 q 483 127 429 60 q 537 336 537 195 q 496 532 537 467 q 374 597 456 597 q 277 567 326 597 q 190 472 228 537 z "},"q":{"ha":694,"x_min":65,"x_max":646,"o":"m 488 184 l 488 494 q 429 572 467 543 q 336 602 391 602 q 206 537 260 602 q 152 315 152 472 q 198 122 152 179 q 315 65 244 65 q 420 92 374 65 q 488 184 467 119 m 564 635 l 564 -92 q 578 -130 564 -119 q 613 -141 591 -141 l 646 -141 l 646 -174 l 396 -174 l 396 -141 l 439 -141 q 477 -130 467 -141 q 488 -92 488 -119 l 488 109 q 410 43 456 65 q 298 22 363 22 q 136 100 206 22 q 65 331 65 179 q 146 559 65 477 q 320 640 228 640 q 420 618 380 640 q 494 564 461 597 l 543 635 l 564 635 z "},"r":{"ha":694,"x_min":38,"x_max":629,"o":"m 271 662 l 271 467 q 388 600 326 553 q 515 646 450 646 q 600 621 570 646 q 629 564 629 597 q 616 521 629 537 q 575 505 602 505 q 534 521 548 505 q 526 564 521 537 q 521 591 526 581 q 488 602 515 602 q 382 548 445 602 q 271 396 320 494 l 271 103 q 285 71 271 81 q 320 60 298 60 l 439 60 l 439 27 l 38 27 l 38 60 l 146 60 q 184 71 174 60 q 195 103 195 81 l 195 553 q 184 589 195 575 q 146 602 174 602 l 43 602 l 43 635 l 87 635 q 176 643 125 635 q 255 662 228 651 l 271 662 z "},"s":{"ha":694,"x_min":109,"x_max":586,"o":"m 152 407 q 141 423 152 407 q 130 477 130 439 q 193 602 130 559 q 342 646 255 646 q 434 632 391 646 q 494 618 477 618 q 521 624 510 618 q 548 646 532 629 l 570 467 l 537 461 q 464 572 515 532 q 347 613 412 613 q 236 586 277 613 q 195 510 195 559 q 214 442 195 467 q 282 407 233 418 q 377 372 320 391 q 483 331 434 353 q 556 274 526 309 q 586 195 586 239 q 529 68 586 114 q 363 22 472 22 q 258 35 293 22 q 201 49 222 49 q 165 41 184 49 q 125 22 146 33 l 109 222 l 141 228 q 212 98 157 141 q 363 54 266 54 q 480 81 439 54 q 521 163 521 109 q 499 225 521 201 q 456 260 477 250 q 336 307 401 282 q 222 353 271 331 q 152 407 174 374 z "},"t":{"ha":694,"x_min":81,"x_max":586,"o":"m 320 602 l 320 201 q 347 98 320 125 q 429 71 374 71 q 515 106 483 71 q 559 206 548 141 l 586 195 q 529 71 575 119 q 407 22 483 22 q 285 71 326 22 q 244 222 244 119 l 244 602 l 81 602 l 81 635 l 125 635 q 231 675 190 635 q 282 803 271 716 l 288 846 l 320 846 l 320 635 l 537 635 l 537 602 l 320 602 z "},"u":{"ha":694,"x_min":27,"x_max":646,"o":"m 217 109 q 233 92 217 109 q 309 76 250 76 q 420 109 374 76 q 488 212 467 141 l 488 553 q 477 589 488 575 q 439 602 467 602 l 407 602 l 407 635 l 439 635 q 499 640 472 635 q 553 667 526 646 l 564 667 l 564 136 q 578 103 564 114 q 613 92 591 92 l 646 92 l 646 60 l 613 60 q 559 52 586 60 q 499 27 532 43 l 488 27 l 488 141 q 407 52 461 81 q 282 22 353 22 q 152 71 195 22 q 109 228 109 119 l 109 553 q 98 589 109 575 q 60 602 87 602 l 27 602 l 27 635 l 60 635 q 119 640 92 635 q 174 667 146 646 l 184 667 l 184 217 q 217 109 184 141 z "},"v":{"ha":694,"x_min":43,"x_max":629,"o":"m 532 526 l 347 22 l 315 22 l 130 553 q 109 589 125 575 q 71 602 92 602 l 43 602 l 43 635 l 277 635 l 277 602 l 255 602 q 214 586 222 602 q 217 532 206 570 l 347 152 l 358 152 l 488 526 q 491 583 505 564 q 445 602 477 602 l 434 602 l 434 635 l 629 635 l 629 602 l 618 602 q 567 583 586 602 q 532 526 548 564 z "},"w":{"ha":694,"x_min":0,"x_max":684,"o":"m 499 602 l 499 635 l 684 635 l 684 602 l 662 602 q 624 586 640 602 q 597 532 608 570 l 467 22 l 434 22 l 336 434 l 233 22 l 201 22 l 76 521 q 54 581 71 559 q 22 602 38 602 l 0 602 l 0 635 l 195 635 l 195 602 l 174 602 q 146 583 152 602 q 146 532 141 564 l 228 179 l 239 179 l 320 505 q 298 578 315 553 q 260 602 282 602 l 244 602 l 244 635 l 429 635 l 429 602 l 412 602 q 385 583 391 602 q 385 532 380 564 l 467 179 l 472 179 l 564 559 q 559 591 570 581 q 526 602 548 602 l 499 602 z "},"x":{"ha":694,"x_min":43,"x_max":629,"o":"m 266 548 l 358 401 l 456 548 q 469 586 472 570 q 429 602 467 602 l 396 602 l 396 635 l 608 635 l 608 602 l 581 602 q 553 600 570 602 q 526 581 537 597 l 380 363 l 532 114 q 572 73 548 87 q 608 60 597 60 l 629 60 l 629 27 l 391 27 l 391 60 l 423 60 q 458 76 456 60 q 450 114 461 92 l 336 298 l 206 109 q 209 71 201 81 q 239 60 217 60 l 255 60 l 255 27 l 43 27 l 43 60 l 76 60 q 125 76 98 60 q 168 125 152 92 l 309 336 l 168 564 q 146 589 163 575 q 103 602 130 602 l 76 602 l 76 635 l 309 635 l 309 602 l 293 602 q 260 586 266 602 q 266 548 255 570 z "},"y":{"ha":694,"x_min":54,"x_max":640,"o":"m 222 548 l 353 179 l 363 179 l 483 543 q 480 586 494 570 q 445 602 467 602 l 412 602 l 412 635 l 640 635 l 640 602 l 608 602 q 564 586 586 602 q 532 543 543 570 l 347 5 q 279 -122 320 -76 q 174 -168 239 -168 q 114 -155 136 -168 q 92 -114 92 -141 q 106 -81 92 -98 q 146 -65 119 -65 q 190 -84 168 -65 q 222 -103 212 -103 q 250 -98 239 -103 q 266 -76 260 -92 q 298 -8 282 -49 q 326 76 315 33 l 141 553 q 117 589 136 575 q 76 602 98 602 l 54 602 l 54 635 l 282 635 l 282 602 l 260 602 q 228 589 239 602 q 222 548 217 575 z "},"z":{"ha":694,"x_min":87,"x_max":591,"o":"m 559 244 l 591 239 l 553 27 l 87 27 l 87 54 l 461 602 l 260 602 q 179 567 212 602 q 125 445 146 532 l 92 450 l 114 635 l 559 635 l 559 618 l 179 60 l 385 60 q 496 103 456 60 q 559 244 537 146 z "},"{":{"ha":694,"x_min":288,"x_max":586,"o":"m 456 347 l 456 81 q 486 -30 456 11 q 586 -71 515 -71 l 586 -109 q 450 -62 494 -109 q 407 103 407 -16 l 407 336 q 385 442 407 401 q 288 488 363 483 l 288 521 q 382 564 358 532 q 407 673 407 597 l 407 906 q 450 1072 407 1025 q 586 1118 494 1118 l 586 1080 q 486 1042 515 1080 q 456 928 456 1004 l 456 662 q 418 543 456 575 q 336 510 380 510 l 336 499 q 420 461 385 499 q 456 347 456 423 z "},"|":{"ha":694,"x_min":320,"x_max":353,"o":"m 353 -184 l 320 -184 l 320 1194 l 353 1194 l 353 -184 z "},"}":{"ha":694,"x_min":98,"x_max":396,"o":"m 396 521 l 396 488 q 301 442 326 483 q 277 336 277 401 l 277 103 q 233 -62 277 -16 q 98 -109 190 -109 l 98 -71 q 201 -30 174 -71 q 228 81 228 11 l 228 347 q 263 461 228 423 q 347 499 298 499 l 347 510 q 266 543 304 510 q 228 662 228 575 l 228 928 q 201 1042 228 1004 q 98 1080 174 1080 l 98 1118 q 233 1072 190 1118 q 277 906 277 1025 l 277 673 q 304 564 277 597 q 396 521 331 532 z "},"~":{"ha":694,"x_min":49,"x_max":646,"o":"m 347 1006 q 334 1021 347 1006 q 293 1063 320 1036 q 244 1112 266 1090 q 190 1134 222 1134 q 119 1093 146 1134 q 76 987 92 1053 l 49 998 q 117 1139 76 1101 q 206 1177 157 1177 q 255 1172 228 1177 q 309 1139 282 1166 q 358 1090 331 1123 q 407 1036 385 1058 q 458 990 434 1009 q 505 971 483 971 q 575 1009 548 971 q 618 1112 602 1047 l 646 1101 q 578 963 618 1004 q 488 922 537 922 q 442 930 467 922 q 391 960 418 939 q 347 1006 374 977 z "},"":{"ha":694,"x_min":0,"x_max":0,"o":""}}}
